<?xml version="1.0" encoding="UTF-8" standalone="no"?>
<!-- Created with Inkscape (http://www.inkscape.org/) -->

<svg
   width="195.32719mm"
   height="219.54868mm"
   viewBox="0 0 195.32719 219.54868"
   version="1.1"
   id="svg1"
   xml:space="preserve"
   inkscape:version="1.3 (1:1.3+202307231459+0e150ed6c4)"
   sodipodi:docname="missing-person-avatar.svg"
   inkscape:export-filename="missing-person-avatar-1.svg"
   inkscape:export-xdpi="96"
   inkscape:export-ydpi="96"
   xmlns:inkscape="http://www.inkscape.org/namespaces/inkscape"
   xmlns:sodipodi="http://sodipodi.sourceforge.net/DTD/sodipodi-0.dtd"
   xmlns="http://www.w3.org/2000/svg"
   xmlns:svg="http://www.w3.org/2000/svg"><sodipodi:namedview
     id="namedview1"
     pagecolor="#ffffff"
     bordercolor="#000000"
     borderopacity="0.25"
     inkscape:showpageshadow="2"
     inkscape:pageopacity="0.0"
     inkscape:pagecheckerboard="0"
     inkscape:deskcolor="#d1d1d1"
     inkscape:document-units="mm"
     inkscape:zoom="0.37039777"
     inkscape:cx="-365.82294"
     inkscape:cy="426.56844"
     inkscape:window-width="2560"
     inkscape:window-height="1376"
     inkscape:window-x="0"
     inkscape:window-y="27"
     inkscape:window-maximized="1"
     inkscape:current-layer="layer1" /><defs
     id="defs1" /><g
     inkscape:label="Layer 1"
     inkscape:groupmode="layer"
     id="layer1"
     transform="translate(435.89533,-38.725665)"><path
       style="fill:#666666;fill-opacity:1;stroke:none;stroke-width:2"
       d="m -435.89519,258.27434 c 0,0 13.51133,-79.60018 18.94131,-82.36807 5.18285,-2.64192 56.92357,-29.0946 56.92357,-29.0946 l 2.49335,-8.59867 -5.8334,-12.87422 -2.237,-4.41299 -2.90962,-2.42414 -1.46302,-5.73447 -3.28475,-15.252977 1.30532,-3.11486 -1.00867,-7.82859 -0.67363,-7.37718 -1.22748,-5.42182 0.0512,-8.03501 3.56031,-6.47331 5.86491,-7.11629 9.11252,-9.16511 9.16093,-2.05286 12.23134,-2.20351 9.83808,2.70086 9.94196,3.50424 6.9963,4.08612 4.3892,7.81359 5.30085,8.90627 2.48311,7.01012 -2.38564,12.9964 -0.70094,7.60895 2.60245,2.63962 -3.64609,15.794577 -2.12937,7.28893 -4.66577,2.66556 -2.30735,10.82933 -2.12339,3.69084 1.86224,8.70591 11.62551,4.18566 38.15286,18.27411 10.87535,14.32586 8.2105,76.52173 h -195.32719 z"
       id="path6"
       sodipodi:nodetypes="cscccccccccccccccccccccccccccccccccccccc"
       inkscape:export-filename="path6.svg"
       inkscape:export-xdpi="96"
       inkscape:export-ydpi="96" /></g></svg>
